# xmcd
#
# Track frame offsets:
#	150
#	17242
#	27672
#	45690
#	59935
#	90207
#	107262
#	127465
#	141725
#	153440
#	163875
#	175460
#	185942
#
# Disc length: 2763 seconds
#
# Revision: 0
# Processed by: cddbd v1.4PL0 Copyright (c) Steve Scherf et al.
# Submitted via: dBpowerAMP V4.0
#
DISCID=ca0ac90d
DTITLE=Brian Evans - quite,frankly
DYEAR=1997
DGENRE=Blues
TTITLE0=New York,New York
TTITLE1=What A Wonderful World
TTITLE2=My Way
TTITLE3=Learning The Blues
TTITLE4=Summertime
TTITLE5=I've Get You Under My Skin
TTITLE6=Sentimental Jourrney
TTITLE7=Maybe This Time
TTITLE8=Nice n' Easy
TTITLE9=Why Should I Cry
TTITLE10=Fly Me To The Moon
TTITLE11=World On A String
TTITLE12=I'm Going
EXTD=
EXTT0=
EXTT1=
EXTT2=
EXTT3=
EXTT4=
EXTT5=
EXTT6=
EXTT7=
EXTT8=
EXTT9=
EXTT10=
EXTT11=
EXTT12=
PLAYORDER=
